<?xml version="1.0" encoding="UTF-8"?>
<svg xmlns="http://www.w3.org/2000/svg" viewBox="0 0 836 660" width="836" height="660"
     role="img" aria-label="AgentForge mascot gallery">
  
    <g transform="translate(0,0)">
      <rect width="200" height="200" rx="18" fill="#0c1224"/>
      <rect x="4" y="4" width="192" height="192" rx="14" fill="none" stroke="#f5b94a" stroke-opacity=".4"/>
      <g transform="translate(20,20) scale(5)" shape-rendering="crispEdges" style="color:#f5b94a">
      <rect class="halo" x="2" y="2" width="28" height="28" fill="currentColor" opacity="0.165" rx="4"/>
      <g class="mascot-body"><rect x="6" y="25" width="20" height="1" fill="#000" class="r-shadow" opacity="0.35"/><rect x="6" y="21" width="3" height="4" fill="#3f6c45" class="r-leg"/><rect x="23" y="21" width="3" height="4" fill="#3f6c45" class="r-leg"/><rect x="9" y="22" width="3" height="3" fill="#3f6c45" class="r-leg"/><rect x="20" y="22" width="3" height="3" fill="#3f6c45" class="r-leg"/><rect x="5" y="14" width="22" height="8" fill="#2a4530" class="r-shell-base"/><rect x="6" y="11" width="20" height="10" fill="#4a8a55" class="r-shell"/><rect x="7" y="10" width="18" height="1" fill="#4a8a55" class="r-shell"/><rect x="8" y="9" width="16" height="1" fill="#4a8a55" class="r-shell"/><rect x="8" y="11" width="5" height="1" fill="#7bbd8a" class="r-shell-light"/><rect x="7" y="12" width="3" height="1" fill="#7bbd8a" class="r-shell-light"/><rect x="11" y="13" width="3" height="3" fill="#3f6c45" class="r-shell-pattern"/><rect x="16" y="13" width="3" height="3" fill="#3f6c45" class="r-shell-pattern"/><rect x="13" y="17" width="3" height="3" fill="#3f6c45" class="r-shell-pattern"/><rect x="18" y="16" width="3" height="2" fill="#3f6c45" class="r-shell-pattern"/><rect x="26" y="17" width="2" height="2" fill="#5fa86d" class="r-tail"/><rect x="28" y="18" width="1" height="1" fill="#5fa86d" class="r-tail"/><rect x="3" y="16" width="3" height="3" fill="#5fa86d" class="r-neck"/><rect x="1" y="14" width="5" height="5" fill="#5fa86d" class="r-head"/><rect x="2" y="16" width="1" height="1" fill="#000" class="r-eye"/><rect x="4" y="16" width="1" height="1" fill="#000" class="r-eye"/></g>
      <g class="mascot-evo"><rect x="15" y="9" width="2" height="2" fill="currentColor" class="r-radar"/><rect x="10" y="14" width="1" height="1" fill="currentColor" class="r-shell-led"/><rect x="20" y="14" width="1" height="1" fill="currentColor" class="r-shell-led"/><rect x="8" y="8" width="16" height="1" fill="currentColor" class="r-bridge" opacity="0.7"/><rect x="15" y="3" width="2" height="6" fill="currentColor" class="r-antenna"/><rect x="14" y="1" width="4" height="2" fill="currentColor" class="r-antenna-tip"/></g>
    </g>
      <text x="100" y="188" text-anchor="middle"
            font-family="JetBrains Mono, ui-monospace, monospace"
            font-weight="700" font-size="11" fill="#f5b94a" letter-spacing="1.4">
        ATLAS PRIME
      </text>
    </g>
  
    <g transform="translate(212,0)">
      <rect width="200" height="200" rx="18" fill="#0c1224"/>
      <rect x="4" y="4" width="192" height="192" rx="14" fill="none" stroke="#7ee787" stroke-opacity=".4"/>
      <g transform="translate(20,20) scale(5)" shape-rendering="crispEdges" style="color:#7ee787">
      <rect class="halo" x="2" y="2" width="28" height="28" fill="currentColor" opacity="0.165" rx="4"/>
      <g class="mascot-body"><rect x="7" y="11" width="18" height="14" fill="#5e3f2d" class="r-body"/><rect x="8" y="10" width="16" height="1" fill="#5e3f2d" class="r-body"/><rect x="10" y="16" width="12" height="9" fill="#a07655" class="r-chest"/><rect x="6" y="6" width="20" height="8" fill="#5e3f2d" class="r-head"/><rect x="7" y="5" width="18" height="1" fill="#5e3f2d" class="r-head"/><rect x="9" y="4" width="14" height="1" fill="#5e3f2d" class="r-head"/><rect x="6" y="3" width="2" height="2" fill="#5e3f2d" class="r-tuft"/><rect x="24" y="3" width="2" height="2" fill="#5e3f2d" class="r-tuft"/><rect x="8" y="7" width="16" height="7" fill="#c7a37f" class="r-face"/><rect x="9" y="8" width="5" height="5" fill="#fcd34d" class="r-eye-bg"/><rect x="18" y="8" width="5" height="5" fill="#fcd34d" class="r-eye-bg"/><rect x="10" y="9" width="3" height="3" fill="#000" class="r-eye-pupil"/><rect x="19" y="9" width="3" height="3" fill="#000" class="r-eye-pupil"/><rect x="11" y="9" width="1" height="1" fill="#fff" class="r-eye-glint"/><rect x="20" y="9" width="1" height="1" fill="#fff" class="r-eye-glint"/><rect x="15" y="13" width="2" height="2" fill="#f59e0b" class="r-beak"/><rect x="16" y="15" width="1" height="1" fill="#f59e0b" class="r-beak"/><rect x="9" y="25" width="2" height="2" fill="#f59e0b" class="r-talon"/><rect x="14" y="25" width="2" height="2" fill="#f59e0b" class="r-talon"/><rect x="19" y="25" width="2" height="2" fill="#f59e0b" class="r-talon"/></g>
      <g class="mascot-evo"><rect x="6" y="14" width="20" height="1" fill="currentColor" class="r-scan" opacity="0.7"/><rect x="12" y="18" width="2" height="1" fill="#5e3f2d" class="r-feather"/><rect x="16" y="18" width="2" height="1" fill="#5e3f2d" class="r-feather"/><rect x="14" y="20" width="2" height="1" fill="#5e3f2d" class="r-feather"/><rect x="5" y="14" width="2" height="7" fill="#3a261a" class="r-wing"/><rect x="25" y="14" width="2" height="7" fill="#3a261a" class="r-wing"/><rect x="4" y="5" width="24" height="22" fill="currentColor" class="r-aura" opacity="0.12"/></g>
    </g>
      <text x="100" y="188" text-anchor="middle"
            font-family="JetBrains Mono, ui-monospace, monospace"
            font-weight="700" font-size="11" fill="#7ee787" letter-spacing="1.4">
        SENTINEL
      </text>
    </g>
  
    <g transform="translate(424,0)">
      <rect width="200" height="200" rx="18" fill="#0c1224"/>
      <rect x="4" y="4" width="192" height="192" rx="14" fill="none" stroke="#f06bd2" stroke-opacity=".4"/>
      <g transform="translate(20,20) scale(5)" shape-rendering="crispEdges" style="color:#f06bd2">
      <rect class="halo" x="2" y="2" width="28" height="28" fill="currentColor" opacity="0.165" rx="4"/>
      <g class="mascot-body"><rect x="10" y="24" width="2" height="4" fill="#c2410c" class="r-leg"/><rect x="16" y="24" width="2" height="4" fill="#c2410c" class="r-leg"/><rect x="20" y="24" width="2" height="4" fill="#c2410c" class="r-leg"/><rect x="22" y="14" width="3" height="2" fill="#e85a1c" class="r-tail"/><rect x="24" y="15" width="3" height="3" fill="#e85a1c" class="r-tail"/><rect x="26" y="17" width="3" height="4" fill="#e85a1c" class="r-tail"/><rect x="27" y="20" width="3" height="3" fill="#fff" class="r-tail-tip"/><rect x="8" y="16" width="16" height="9" fill="#e85a1c" class="r-body"/><rect x="9" y="15" width="14" height="1" fill="#e85a1c" class="r-body"/><rect x="10" y="21" width="12" height="3" fill="#fff" class="r-belly"/><rect x="6" y="10" width="8" height="7" fill="#e85a1c" class="r-head"/><rect x="7" y="9" width="6" height="1" fill="#e85a1c" class="r-head"/><rect x="4" y="13" width="2" height="3" fill="#e85a1c" class="r-head"/><rect x="5" y="6" width="3" height="4" fill="#e85a1c" class="r-ear"/><rect x="12" y="6" width="3" height="4" fill="#e85a1c" class="r-ear"/><rect x="6" y="8" width="1" height="2" fill="#fda4af" class="r-ear-in"/><rect x="13" y="8" width="1" height="2" fill="#fda4af" class="r-ear-in"/><rect x="3" y="14" width="4" height="2" fill="#fff" class="r-muzzle"/><rect x="2" y="14" width="2" height="2" fill="#111" class="r-nose"/><rect x="8" y="12" width="1" height="1" fill="#111" class="r-eye"/><rect x="12" y="12" width="1" height="1" fill="#111" class="r-eye"/></g>
      <g class="mascot-evo"><rect x="22" y="13" width="8" height="1" fill="currentColor" class="r-tail-glow" opacity="0.7"/><rect x="17" y="12" width="1" height="1" fill="currentColor" class="r-shimmer"/><rect x="19" y="14" width="1" height="1" fill="currentColor" class="r-shimmer"/><rect x="12" y="16" width="10" height="1" fill="#9a2f0a" class="r-stripe"/><rect x="1" y="8" width="30" height="18" fill="currentColor" class="r-aura" opacity="0.1"/></g>
    </g>
      <text x="100" y="188" text-anchor="middle"
            font-family="JetBrains Mono, ui-monospace, monospace"
            font-weight="700" font-size="11" fill="#f06bd2" letter-spacing="1.4">
        AURORA
      </text>
    </g>
  
    <g transform="translate(636,0)">
      <rect width="200" height="200" rx="18" fill="#0c1224"/>
      <rect x="4" y="4" width="192" height="192" rx="14" fill="none" stroke="#ff9a55" stroke-opacity=".4"/>
      <g transform="translate(20,20) scale(5)" shape-rendering="crispEdges" style="color:#ff9a55">
      <rect class="halo" x="2" y="2" width="28" height="28" fill="currentColor" opacity="0.165" rx="4"/>
      <g class="mascot-body"><rect x="5" y="12" width="22" height="14" fill="#5a4030" class="r-body"/><rect x="6" y="11" width="20" height="1" fill="#5a4030" class="r-body"/><rect x="4" y="14" width="1" height="10" fill="#5a4030" class="r-body"/><rect x="27" y="14" width="1" height="10" fill="#5a4030" class="r-body"/><rect x="7" y="18" width="18" height="6" fill="#7a5a44" class="r-belly"/><rect x="1" y="16" width="4" height="3" fill="#fb7185" class="r-snout"/><rect x="7" y="15" width="2" height="1" fill="#111" class="r-eye"/><rect x="0" y="14" width="1" height="1" fill="#a78bfa" class="r-whisker" opacity="0.7"/><rect x="0" y="19" width="1" height="1" fill="#a78bfa" class="r-whisker" opacity="0.7"/><rect x="24" y="19" width="6" height="3" fill="#cbd5e1" class="r-claw"/><rect x="25" y="22" width="5" height="1" fill="#cbd5e1" class="r-claw"/><rect x="26" y="23" width="4" height="1" fill="#94a3b8" class="r-claw"/><rect x="29" y="19" width="1" height="1" fill="#fff" class="r-claw-tip"/><rect x="29" y="21" width="1" height="1" fill="#fff" class="r-claw-tip"/><rect x="6" y="26" width="3" height="1" fill="#3d2a20" class="r-foot"/><rect x="22" y="26" width="3" height="1" fill="#3d2a20" class="r-foot"/></g>
      <g class="mascot-evo"><rect x="26" y="16" width="1" height="1" fill="currentColor" class="r-spark"/><rect x="28" y="14" width="1" height="1" fill="currentColor" class="r-spark"/><rect x="24" y="14" width="1" height="1" fill="currentColor" class="r-spark"/><rect x="10" y="10" width="1" height="1" fill="#3d2a20" class="r-fur"/><rect x="14" y="10" width="1" height="1" fill="#3d2a20" class="r-fur"/><rect x="12" y="26" width="8" height="1" fill="#475569" class="r-anvil"/><rect x="14" y="24" width="4" height="2" fill="#64748b" class="r-anvil-top"/><rect x="22" y="5" width="4" height="3" fill="#94a3b8" class="r-hammer-head"/><rect x="23" y="8" width="1" height="4" fill="#5a4030" class="r-hammer-shaft"/></g>
    </g>
      <text x="100" y="188" text-anchor="middle"
            font-family="JetBrains Mono, ui-monospace, monospace"
            font-weight="700" font-size="11" fill="#ff9a55" letter-spacing="1.4">
        FORGE
      </text>
    </g>
  
    <g transform="translate(0,212)">
      <rect width="200" height="200" rx="18" fill="#0c1224"/>
      <rect x="4" y="4" width="192" height="192" rx="14" fill="none" stroke="#a78bfa" stroke-opacity=".4"/>
      <g transform="translate(20,20) scale(5)" shape-rendering="crispEdges" style="color:#a78bfa">
      <rect class="halo" x="2" y="2" width="28" height="28" fill="currentColor" opacity="0.165" rx="4"/>
      <g class="mascot-body"><rect x="24" y="16" width="5" height="2" fill="#0ea5e9" class="r-tail"/><rect x="27" y="18" width="2" height="5" fill="#0ea5e9" class="r-tail"/><rect x="25" y="22" width="3" height="2" fill="#0ea5e9" class="r-tail"/><rect x="6" y="14" width="20" height="9" fill="#0ea5e9" class="r-body"/><rect x="7" y="13" width="18" height="1" fill="#0ea5e9" class="r-body"/><rect x="8" y="18" width="16" height="4" fill="#38bdf8" class="r-belly"/><rect x="8" y="23" width="2" height="3" fill="#0369a1" class="r-foot"/><rect x="14" y="23" width="2" height="3" fill="#0369a1" class="r-foot"/><rect x="20" y="23" width="2" height="3" fill="#0369a1" class="r-foot"/><rect x="8" y="26" width="1" height="1" fill="#0369a1" class="r-toe"/><rect x="10" y="26" width="1" height="1" fill="#0369a1" class="r-toe"/><rect x="14" y="26" width="1" height="1" fill="#0369a1" class="r-toe"/><rect x="16" y="26" width="1" height="1" fill="#0369a1" class="r-toe"/><rect x="20" y="26" width="1" height="1" fill="#0369a1" class="r-toe"/><rect x="22" y="26" width="1" height="1" fill="#0369a1" class="r-toe"/><rect x="3" y="12" width="6" height="7" fill="#0ea5e9" class="r-head"/><rect x="2" y="9" width="4" height="4" fill="#0ea5e9" class="r-eye-cone"/><rect x="2" y="9" width="4" height="4" fill="#fef3c7" class="r-eye-ball"/><rect x="3" y="10" width="2" height="2" fill="#111" class="r-eye-iris"/><rect x="3" y="10" width="1" height="1" fill="#fff" class="r-eye-glint"/><rect x="2" y="16" width="4" height="1" fill="#0369a1" class="r-mouth"/><rect x="1" y="16" width="1" height="1" fill="#f472b6" class="r-tongue"/></g>
      <g class="mascot-evo"><rect x="12" y="16" width="2" height="2" fill="#f472b6" class="r-spot"/><rect x="17" y="15" width="2" height="2" fill="#fcd34d" class="r-spot"/><rect x="21" y="17" width="2" height="2" fill="#a78bfa" class="r-spot"/><rect x="14" y="13" width="1" height="3" fill="#0369a1" class="r-stripe"/><rect x="19" y="13" width="1" height="3" fill="#0369a1" class="r-stripe"/><rect x="12" y="11" width="1" height="2" fill="currentColor" class="r-crest"/><rect x="15" y="10" width="1" height="3" fill="currentColor" class="r-crest"/><rect x="18" y="11" width="1" height="2" fill="currentColor" class="r-crest"/><rect x="21" y="12" width="1" height="1" fill="currentColor" class="r-crest"/></g>
    </g>
      <text x="100" y="188" text-anchor="middle"
            font-family="JetBrains Mono, ui-monospace, monospace"
            font-weight="700" font-size="11" fill="#a78bfa" letter-spacing="1.4">
        PRISM
      </text>
    </g>
  
    <g transform="translate(212,212)">
      <rect width="200" height="200" rx="18" fill="#0c1224"/>
      <rect x="4" y="4" width="192" height="192" rx="14" fill="none" stroke="#36d6c3" stroke-opacity=".4"/>
      <g transform="translate(20,20) scale(5)" shape-rendering="crispEdges" style="color:#36d6c3">
      <rect class="halo" x="2" y="2" width="28" height="28" fill="currentColor" opacity="0.165" rx="4"/>
      <g class="mascot-body"><rect x="1" y="12" width="9" height="7" fill="#312e81" class="r-wing-l"/><rect x="3" y="11" width="7" height="1" fill="#312e81" class="r-wing-l"/><rect x="4" y="13" width="1" height="5" fill="#1e1b4b" class="r-wing-bone"/><rect x="6" y="13" width="1" height="5" fill="#1e1b4b" class="r-wing-bone"/><rect x="22" y="12" width="9" height="7" fill="#312e81" class="r-wing-r"/><rect x="22" y="11" width="7" height="1" fill="#312e81" class="r-wing-r"/><rect x="26" y="13" width="1" height="5" fill="#1e1b4b" class="r-wing-bone"/><rect x="28" y="13" width="1" height="5" fill="#1e1b4b" class="r-wing-bone"/><rect x="12" y="10" width="8" height="12" fill="#1e1b4b" class="r-body"/><rect x="13" y="22" width="6" height="2" fill="#1e1b4b" class="r-body"/><rect x="14" y="24" width="4" height="1" fill="#1e1b4b" class="r-body"/><rect x="12" y="7" width="2" height="3" fill="#1e1b4b" class="r-ear"/><rect x="18" y="7" width="2" height="3" fill="#1e1b4b" class="r-ear"/><rect x="12" y="8" width="1" height="2" fill="#7c3aed" class="r-ear-in" opacity="0.6"/><rect x="19" y="8" width="1" height="2" fill="#7c3aed" class="r-ear-in" opacity="0.6"/><rect x="14" y="13" width="1" height="1" fill="#fca5a5" class="r-eye"/><rect x="17" y="13" width="1" height="1" fill="#fca5a5" class="r-eye"/><rect x="14" y="16" width="1" height="2" fill="#fff" class="r-fang"/><rect x="17" y="16" width="1" height="2" fill="#fff" class="r-fang"/></g>
      <g class="mascot-evo"><rect x="8" y="6" width="16" height="1" fill="currentColor" class="r-sonar s1" opacity="0.6"/><rect x="8" y="25" width="16" height="1" fill="currentColor" class="r-sonar s1" opacity="0.6"/><rect x="5" y="3" width="22" height="1" fill="currentColor" class="r-sonar s2" opacity="0.4"/><rect x="5" y="28" width="22" height="1" fill="currentColor" class="r-sonar s2" opacity="0.4"/><rect x="1" y="19" width="2" height="1" fill="currentColor" class="r-wing-tip"/><rect x="29" y="19" width="2" height="1" fill="currentColor" class="r-wing-tip"/><rect x="0" y="0" width="32" height="32" fill="currentColor" class="r-aura" opacity="0.08"/></g>
    </g>
      <text x="100" y="188" text-anchor="middle"
            font-family="JetBrains Mono, ui-monospace, monospace"
            font-weight="700" font-size="11" fill="#36d6c3" letter-spacing="1.4">
        ECHO
      </text>
    </g>
  
    <g transform="translate(424,212)">
      <rect width="200" height="200" rx="18" fill="#0c1224"/>
      <rect x="4" y="4" width="192" height="192" rx="14" fill="none" stroke="#34d399" stroke-opacity=".4"/>
      <g transform="translate(20,20) scale(5)" shape-rendering="crispEdges" style="color:#34d399">
      <rect class="halo" x="2" y="2" width="28" height="28" fill="currentColor" opacity="0.165" rx="4"/>
      <g class="mascot-body"><rect x="3" y="14" width="2" height="1" fill="#34d399" class="r-trail" opacity="0.4"/><rect x="6" y="14" width="2" height="1" fill="#34d399" class="r-trail" opacity="0.6"/><rect x="11" y="12" width="9" height="4" fill="#10b981" class="r-back"/><rect x="11" y="11" width="7" height="1" fill="#10b981" class="r-back"/><rect x="12" y="15" width="8" height="3" fill="#f472b6" class="r-chest"/><rect x="17" y="9" width="5" height="5" fill="#10b981" class="r-head"/><rect x="19" y="11" width="1" height="1" fill="#111" class="r-eye"/><rect x="22" y="11" width="8" height="1" fill="#fcd34d" class="r-beak"/><rect x="11" y="8" width="8" height="4" fill="#6ee7b7" class="r-wing-t" opacity="0.85"/><rect x="11" y="17" width="8" height="4" fill="#6ee7b7" class="r-wing-b" opacity="0.85"/><rect x="7" y="15" width="4" height="1" fill="#10b981" class="r-tail"/><rect x="7" y="17" width="4" height="1" fill="#10b981" class="r-tail"/></g>
      <g class="mascot-evo"><rect x="1" y="14" width="1" height="1" fill="currentColor" class="r-trail2" opacity="0.7"/><rect x="14" y="16" width="1" height="1" fill="currentColor" class="r-shimmer"/><rect x="30" y="11" width="1" height="1" fill="currentColor" class="r-beak-tip"/><rect x="4" y="6" width="26" height="18" fill="currentColor" class="r-orbit" opacity="0.1"/></g>
    </g>
      <text x="100" y="188" text-anchor="middle"
            font-family="JetBrains Mono, ui-monospace, monospace"
            font-weight="700" font-size="11" fill="#34d399" letter-spacing="1.4">
        VEGA
      </text>
    </g>
  
    <g transform="translate(636,212)">
      <rect width="200" height="200" rx="18" fill="#0c1224"/>
      <rect x="4" y="4" width="192" height="192" rx="14" fill="none" stroke="#9aa5c4" stroke-opacity=".4"/>
      <g transform="translate(20,20) scale(5)" shape-rendering="crispEdges" style="color:#9aa5c4">
      <rect class="halo" x="2" y="2" width="28" height="28" fill="currentColor" opacity="0.165" rx="4"/>
      <g class="mascot-body"><rect x="4" y="26" width="24" height="2" fill="#fef3c7" class="r-scroll"/><rect x="4" y="26" width="24" height="1" fill="#d4a574" class="r-scroll-edge"/><rect x="8" y="12" width="14" height="13" fill="#0f172a" class="r-body"/><rect x="9" y="11" width="12" height="1" fill="#0f172a" class="r-body"/><rect x="11" y="18" width="8" height="6" fill="#1e293b" class="r-belly"/><rect x="9" y="13" width="6" height="9" fill="#020617" class="r-wing"/><rect x="17" y="7" width="8" height="7" fill="#0f172a" class="r-head"/><rect x="25" y="10" width="5" height="1" fill="#fcd34d" class="r-beak"/><rect x="25" y="11" width="4" height="1" fill="#fcd34d" class="r-beak"/><rect x="25" y="12" width="3" height="1" fill="#fcd34d" class="r-beak"/><rect x="22" y="10" width="2" height="2" fill="#fcd34d" class="r-eye"/><rect x="23" y="11" width="1" height="1" fill="#000" class="r-eye"/><rect x="12" y="25" width="2" height="2" fill="#fcd34d" class="r-leg"/><rect x="18" y="25" width="2" height="2" fill="#fcd34d" class="r-leg"/></g>
      <g class="mascot-evo"><rect x="18" y="16" width="1" height="8" fill="#fcd34d" class="r-quill-shaft"/><rect x="16" y="13" width="5" height="3" fill="#fcd34d" class="r-quill-feather"/><rect x="16" y="27" width="2" height="1" fill="#1e293b" class="r-ink"/><rect x="6" y="27" width="6" height="1" fill="#1e293b" class="r-line" opacity="0.6"/><rect x="19" y="27" width="6" height="1" fill="#1e293b" class="r-line" opacity="0.6"/><rect x="14" y="6" width="1" height="3" fill="#fcd34d" class="r-feather-tuft"/></g>
    </g>
      <text x="100" y="188" text-anchor="middle"
            font-family="JetBrains Mono, ui-monospace, monospace"
            font-weight="700" font-size="11" fill="#9aa5c4" letter-spacing="1.4">
        SCRIBE
      </text>
    </g>
  
    <g transform="translate(0,424)">
      <rect width="200" height="200" rx="18" fill="#0c1224"/>
      <rect x="4" y="4" width="192" height="192" rx="14" fill="none" stroke="#eab308" stroke-opacity=".4"/>
      <g transform="translate(20,20) scale(5)" shape-rendering="crispEdges" style="color:#eab308">
      <rect class="halo" x="2" y="2" width="28" height="28" fill="currentColor" opacity="0.165" rx="4"/>
      <g class="mascot-body"><rect x="22" y="18" width="3" height="3" fill="#94a3b8" class="r-tail"/><rect x="24" y="20" width="4" height="3" fill="#1e293b" class="r-tail"/><rect x="26" y="22" width="4" height="3" fill="#94a3b8" class="r-tail"/><rect x="28" y="24" width="3" height="2" fill="#1e293b" class="r-tail"/><rect x="7" y="14" width="16" height="12" fill="#94a3b8" class="r-body"/><rect x="8" y="13" width="14" height="1" fill="#94a3b8" class="r-body"/><rect x="10" y="18" width="10" height="7" fill="#cbd5e1" class="r-chest"/><rect x="9" y="26" width="3" height="2" fill="#475569" class="r-leg"/><rect x="18" y="26" width="3" height="2" fill="#475569" class="r-leg"/><rect x="6" y="7" width="14" height="8" fill="#94a3b8" class="r-head"/><rect x="7" y="6" width="12" height="1" fill="#94a3b8" class="r-head"/><rect x="6" y="4" width="3" height="3" fill="#94a3b8" class="r-ear"/><rect x="17" y="4" width="3" height="3" fill="#94a3b8" class="r-ear"/><rect x="7" y="5" width="1" height="1" fill="#1e293b" class="r-ear-in"/><rect x="18" y="5" width="1" height="1" fill="#1e293b" class="r-ear-in"/><rect x="6" y="9" width="14" height="3" fill="#1e293b" class="r-mask"/><rect x="8" y="10" width="2" height="2" fill="#fff" class="r-eye"/><rect x="16" y="10" width="2" height="2" fill="#fff" class="r-eye"/><rect x="9" y="11" width="1" height="1" fill="#000" class="r-eye-pupil"/><rect x="17" y="11" width="1" height="1" fill="#000" class="r-eye-pupil"/><rect x="12" y="13" width="2" height="1" fill="#1e293b" class="r-nose"/><rect x="5" y="18" width="2" height="2" fill="#475569" class="r-hand"/><rect x="21" y="18" width="2" height="2" fill="#475569" class="r-hand"/></g>
      <g class="mascot-evo"><rect x="22" y="16" width="3" height="3" fill="#fcd34d" class="r-coin"/><rect x="23" y="17" width="1" height="1" fill="#a16207" class="r-coin"/><rect x="26" y="6" width="2" height="2" fill="currentColor" class="r-coin2"/><rect x="2" y="30" width="24" height="1" fill="#1e293b" class="r-bar-bg"/><rect x="2" y="30" width="14" height="1" fill="#fcd34d" class="r-bar-fill"/><rect x="25" y="10" width="1" height="1" fill="currentColor" class="r-tick"/><rect x="27" y="12" width="1" height="1" fill="currentColor" class="r-tick"/><rect x="29" y="10" width="1" height="1" fill="currentColor" class="r-tick"/></g>
    </g>
      <text x="100" y="188" text-anchor="middle"
            font-family="JetBrains Mono, ui-monospace, monospace"
            font-weight="700" font-size="11" fill="#eab308" letter-spacing="1.4">
        LEDGER
      </text>
    </g>
  
    <g transform="translate(212,424)">
      <rect width="200" height="200" rx="18" fill="#0c1224"/>
      <rect x="4" y="4" width="192" height="192" rx="14" fill="none" stroke="#ff6b7d" stroke-opacity=".4"/>
      <g transform="translate(20,20) scale(5)" shape-rendering="crispEdges" style="color:#ff6b7d">
      <rect class="halo" x="2" y="2" width="28" height="28" fill="currentColor" opacity="0.165" rx="4"/>
      <g class="mascot-body"><rect x="8" y="12" width="14" height="13" fill="#000" class="r-body"/><rect x="9" y="11" width="12" height="1" fill="#000" class="r-body"/><rect x="11" y="18" width="8" height="6" fill="#171717" class="r-belly"/><rect x="9" y="13" width="6" height="9" fill="#0a0a0a" class="r-wing"/><rect x="17" y="7" width="8" height="7" fill="#000" class="r-head"/><rect x="25" y="10" width="5" height="1" fill="#7f1d1d" class="r-beak"/><rect x="25" y="11" width="4" height="1" fill="#7f1d1d" class="r-beak"/><rect x="25" y="12" width="3" height="1" fill="#7f1d1d" class="r-beak"/><rect x="22" y="10" width="2" height="2" fill="#ef4444" class="r-eye"/><rect x="21" y="9" width="4" height="4" fill="#ef4444" class="r-eye-glow" opacity="0.25"/><rect x="12" y="25" width="2" height="3" fill="#7f1d1d" class="r-leg"/><rect x="18" y="25" width="2" height="3" fill="#7f1d1d" class="r-leg"/></g>
      <g class="mascot-evo"><rect x="5" y="16" width="4" height="1" fill="#ef4444" class="r-glitch" opacity="0.7"/><rect x="24" y="22" width="5" height="1" fill="#ef4444" class="r-glitch" opacity="0.7"/><rect x="1" y="9" width="6" height="1" fill="#ef4444" class="r-glitch" opacity="0.5"/><rect x="22" y="16" width="8" height="1" fill="#ef4444" class="r-glitch" opacity="0.5"/><rect x="4" y="30" width="2" height="1" fill="currentColor" class="r-trace"/><rect x="8" y="30" width="2" height="1" fill="currentColor" class="r-trace"/><rect x="12" y="30" width="2" height="1" fill="currentColor" class="r-trace"/><rect x="16" y="30" width="2" height="1" fill="currentColor" class="r-trace"/><rect x="0" y="0" width="8" height="5" fill="#7f1d1d" class="r-stack" opacity="0.5"/><rect x="1" y="2" width="6" height="1" fill="currentColor" class="r-stack-text"/></g>
    </g>
      <text x="100" y="188" text-anchor="middle"
            font-family="JetBrains Mono, ui-monospace, monospace"
            font-weight="700" font-size="11" fill="#ff6b7d" letter-spacing="1.4">
        RAVEN
      </text>
    </g>
  
    <g transform="translate(424,424)">
      <rect width="200" height="200" rx="18" fill="#0c1224"/>
      <rect x="4" y="4" width="192" height="192" rx="14" fill="none" stroke="#fde047" stroke-opacity=".4"/>
      <g transform="translate(20,20) scale(5)" shape-rendering="crispEdges" style="color:#fde047">
      <rect class="halo" x="2" y="2" width="28" height="28" fill="currentColor" opacity="0.165" rx="4"/>
      <g class="mascot-body"><rect x="4" y="7" width="8" height="5" fill="#fde047" class="r-wing-l" opacity="0.4"/><rect x="14" y="7" width="8" height="5" fill="#fde047" class="r-wing-r" opacity="0.4"/><rect x="10" y="14" width="4" height="3" fill="#713f12" class="r-head"/><rect x="12" y="17" width="5" height="3" fill="#854d0e" class="r-thorax"/><rect x="13" y="20" width="6" height="4" fill="#a16207" class="r-abdomen"/><rect x="9" y="11" width="1" height="3" fill="#713f12" class="r-antenna"/><rect x="14" y="11" width="1" height="3" fill="#713f12" class="r-antenna"/><rect x="8" y="10" width="1" height="1" fill="#fde047" class="r-antenna-tip"/><rect x="15" y="10" width="1" height="1" fill="#fde047" class="r-antenna-tip"/><rect x="11" y="15" width="1" height="1" fill="#000" class="r-eye"/><rect x="11" y="23" width="1" height="2" fill="#713f12" class="r-leg"/><rect x="14" y="23" width="1" height="2" fill="#713f12" class="r-leg"/><rect x="17" y="23" width="1" height="2" fill="#713f12" class="r-leg"/><rect x="17" y="21" width="8" height="6" fill="#fde047" class="r-lantern-glow" opacity="0.4"/><rect x="18" y="22" width="6" height="4" fill="#fef08a" class="r-lantern-mid"/><rect x="19" y="23" width="4" height="2" fill="#fff" class="r-lantern-core"/></g>
      <g class="mascot-evo"><rect x="2" y="4" width="1" height="1" fill="currentColor" class="r-spark s1"/><rect x="28" y="6" width="1" height="1" fill="currentColor" class="r-spark s2"/><rect x="4" y="28" width="1" height="1" fill="currentColor" class="r-spark s3"/><rect x="6" y="9" width="4" height="1" fill="#a16207" class="r-vein" opacity="0.5"/><rect x="16" y="9" width="4" height="1" fill="#a16207" class="r-vein" opacity="0.5"/><rect x="14" y="18" width="14" height="12" fill="currentColor" class="r-aura" opacity="0.15"/></g>
    </g>
      <text x="100" y="188" text-anchor="middle"
            font-family="JetBrains Mono, ui-monospace, monospace"
            font-weight="700" font-size="11" fill="#fde047" letter-spacing="1.4">
        LUMA
      </text>
    </g>
  
    <g transform="translate(636,424)">
      <rect width="200" height="200" rx="18" fill="#0c1224"/>
      <rect x="4" y="4" width="192" height="192" rx="14" fill="none" stroke="#60a5fa" stroke-opacity=".4"/>
      <g transform="translate(20,20) scale(5)" shape-rendering="crispEdges" style="color:#60a5fa">
      <rect class="halo" x="2" y="2" width="28" height="28" fill="currentColor" opacity="0.165" rx="4"/>
      <g class="mascot-body"><rect x="22" y="18" width="4" height="2" fill="#7c3aed" class="r-tail"/><rect x="25" y="20" width="2" height="4" fill="#7c3aed" class="r-tail"/><rect x="23" y="24" width="3" height="2" fill="#7c3aed" class="r-tail"/><rect x="6" y="14" width="18" height="8" fill="#7c3aed" class="r-body"/><rect x="7" y="13" width="16" height="1" fill="#7c3aed" class="r-body"/><rect x="8" y="18" width="14" height="4" fill="#a78bfa" class="r-belly"/><rect x="9" y="22" width="2" height="3" fill="#5b21b6" class="r-leg"/><rect x="14" y="22" width="2" height="3" fill="#5b21b6" class="r-leg"/><rect x="19" y="22" width="2" height="3" fill="#5b21b6" class="r-leg"/><rect x="12" y="8" width="8" height="5" fill="#5b21b6" class="r-wing"/><rect x="14" y="7" width="4" height="1" fill="#5b21b6" class="r-wing"/><rect x="13" y="11" width="1" height="2" fill="#a78bfa" class="r-wing-membrane"/><rect x="16" y="11" width="1" height="2" fill="#a78bfa" class="r-wing-membrane"/><rect x="19" y="11" width="1" height="2" fill="#a78bfa" class="r-wing-membrane"/><rect x="10" y="12" width="1" height="2" fill="#fcd34d" class="r-spike"/><rect x="13" y="12" width="1" height="2" fill="#fcd34d" class="r-spike"/><rect x="17" y="12" width="1" height="2" fill="#fcd34d" class="r-spike"/><rect x="2" y="13" width="6" height="5" fill="#7c3aed" class="r-head"/><rect x="3" y="11" width="1" height="2" fill="#fcd34d" class="r-horn"/><rect x="5" y="11" width="1" height="2" fill="#fcd34d" class="r-horn"/><rect x="3" y="15" width="1" height="1" fill="#fcd34d" class="r-eye"/><rect x="0" y="16" width="2" height="1" fill="currentColor" class="r-breath" opacity="0.6"/></g>
      <g class="mascot-evo"><rect x="26" y="4" width="2" height="2" fill="#fcd34d" class="r-star"/><rect x="22" y="2" width="2" height="2" fill="#fcd34d" class="r-star"/><rect x="29" y="8" width="1" height="1" fill="#fcd34d" class="r-star"/><rect x="0" y="15" width="1" height="1" fill="#f97316" class="r-fire"/><rect x="0" y="17" width="1" height="1" fill="#fb923c" class="r-fire"/><rect x="0" y="6" width="32" height="22" fill="currentColor" class="r-orbit" opacity="0.08"/></g>
    </g>
      <text x="100" y="188" text-anchor="middle"
            font-family="JetBrains Mono, ui-monospace, monospace"
            font-weight="700" font-size="11" fill="#60a5fa" letter-spacing="1.4">
        NOVA
      </text>
    </g>
  
</svg>
