<?xml version="1.0" encoding="UTF-8"?>
<svg xmlns="http://www.w3.org/2000/svg" viewBox="0 0 200 200" width="200" height="200"
     role="img" aria-label="AURORA · Neon Fox mascot">
  <defs>
    <linearGradient id="bg" x1="0" y1="0" x2="0" y2="1">
      <stop offset="0%" stop-color="#0c1224"/>
      <stop offset="100%" stop-color="#06090f"/>
    </linearGradient>
    <radialGradient id="halo" cx="50%" cy="50%" r="50%">
      <stop offset="0%" stop-color="#f06bd2" stop-opacity=".25"/>
      <stop offset="70%" stop-color="#f06bd2" stop-opacity=".03"/>
      <stop offset="100%" stop-color="#f06bd2" stop-opacity="0"/>
    </radialGradient>
  </defs>
  <rect width="200" height="200" rx="22" fill="url(#bg)"/>
  <rect x="6" y="6" width="188" height="188" rx="18" fill="none" stroke="#f06bd2" stroke-opacity=".35"/>
  <circle cx="100" cy="100" r="86" fill="url(#halo)"/>
  <g transform="translate(50,50) scale(1.0)" style="color:#f06bd2">
    
      <defs>
        <radialGradient id="halo-fox-5" cx="50%" cy="50%" r="50%">
          <stop offset="0%"  stop-color="currentColor" stop-opacity="0.27499999999999997"/>
          <stop offset="60%" stop-color="currentColor" stop-opacity="0.02"/>
          <stop offset="100%" stop-color="currentColor" stop-opacity="0"/>
        </radialGradient>
        <filter id="glow-fox-5" x="-40%" y="-40%" width="180%" height="180%">
          <feGaussianBlur stdDeviation="2.5" result="b"/>
          <feMerge><feMergeNode in="b"/><feMergeNode in="SourceGraphic"/></feMerge>
        </filter>
      </defs>
      <circle class="mascot-halo" cx="50" cy="52" r="46" fill="url(#halo-fox-5)"/>
      <g class="mascot-body" filter="url(#glow-fox-5)">
    <g class="m-fox">
      <path class="m-fox-tail" d="M22 70q-14 -10 -8 -28q10 12 16 22"
            fill="none" stroke="currentColor" stroke-width="2.2" stroke-linejoin="round"/>
      <path class="m-fox-tail-tip" d="M16 44q-4 4 -2 8" stroke="currentColor" stroke-width="2" fill="none"/>
      <path class="m-fox-body" d="M30 70q14 -22 42 -16q4 14 -10 22q-16 8 -32 -6z"
            fill="none" stroke="currentColor" stroke-width="2.2" stroke-linejoin="round"/>
      <path class="m-fox-belly" d="M34 70q12 -14 32 -10" stroke="currentColor" stroke-width=".7" fill="none" opacity=".4"/>
      <path class="m-fox-head" d="M58 50l16 -12l-4 14l-12 -2z"
            fill="none" stroke="currentColor" stroke-width="2"/>
      <path class="m-fox-ear" d="M70 41l5 -10l-1 8z" fill="currentColor" opacity=".55"/>
      <circle class="m-fox-eye" cx="64" cy="48" r="1.4" fill="currentColor"/>
      <circle class="m-fox-glint" cx="63.4" cy="47.5" r=".5" fill="#fff" opacity=".8"/>
      <path class="m-fox-mouth" d="M62 53q3 1 6 0" stroke="currentColor" stroke-width=".7" fill="none" opacity=".55"/>
      <path class="m-fox-tail-glow" d="M22 70q-14 -10 -8 -28q10 12 16 22" stroke="currentColor" stroke-width="3.6" fill="none" opacity=".25"/>
      <circle class="m-shimmer" cx="46" cy="58" r="1.5" fill="currentColor"/>
      <path class="m-fox-stripe" d="M36 62q14 -8 26 -4" stroke="currentColor" stroke-width="0.9" fill="none" opacity=".65"/>
      <path class="m-fox-aura" d="M30 70q14 -22 42 -16" stroke="currentColor" stroke-width="6" fill="none" opacity=".18"/>
    </g>
  </g>
      <circle class="evo-spark" cx="21" cy="13" r="0.7" style="animation-duration:1.6s;animation-delay:0s"/><circle class="evo-spark" cx="34" cy="16" r="0.95" style="animation-duration:2.0500000000000003s;animation-delay:0.21s"/><circle class="evo-spark" cx="47" cy="19" r="1.2" style="animation-duration:2.5s;animation-delay:0.42s"/><circle class="evo-spark" cx="60" cy="22" r="0.7" style="animation-duration:2.95s;animation-delay:0.63s"/><circle class="evo-spark" cx="73" cy="9" r="0.95" style="animation-duration:1.6s;animation-delay:0.84s"/><circle class="evo-spark" cx="14" cy="12" r="1.2" style="animation-duration:2.0500000000000003s;animation-delay:1.05s"/><circle class="evo-spark" cx="27" cy="15" r="0.7" style="animation-duration:2.5s;animation-delay:1.26s"/><circle class="evo-spark" cx="40" cy="18" r="0.95" style="animation-duration:2.95s;animation-delay:1.47s"/>
    
  </g>
  <text x="100" y="186" text-anchor="middle"
        font-family="JetBrains Mono, ui-monospace, monospace"
        font-weight="700" font-size="9" fill="#f06bd2"
        opacity=".75" letter-spacing="1.2">
    AURORA · NEON FOX
  </text>
</svg>
