<?xml version="1.0" encoding="UTF-8"?>
<svg xmlns="http://www.w3.org/2000/svg" viewBox="0 0 200 200" width="200" height="200"
     shape-rendering="crispEdges"
     role="img" aria-label="FORGE · Forge Mole mascot">
  <defs>
    <linearGradient id="bg" x1="0" y1="0" x2="0" y2="1">
      <stop offset="0%" stop-color="#0c1224"/>
      <stop offset="100%" stop-color="#06090f"/>
    </linearGradient>
    <radialGradient id="halo" cx="50%" cy="50%" r="50%">
      <stop offset="0%" stop-color="#ff9a55" stop-opacity=".25"/>
      <stop offset="70%" stop-color="#ff9a55" stop-opacity=".03"/>
      <stop offset="100%" stop-color="#ff9a55" stop-opacity="0"/>
    </radialGradient>
  </defs>
  <rect width="200" height="200" rx="22" fill="url(#bg)"/>
  <rect x="6" y="6" width="188" height="188" rx="18" fill="none" stroke="#ff9a55" stroke-opacity=".35"/>
  <circle cx="100" cy="100" r="86" fill="url(#halo)"/>
  <!-- centred 32-unit canvas, scaled up ×5 to fill the 200-unit frame -->
  <g transform="translate(20,20) scale(5)" style="color:#ff9a55">
    
      <rect class="halo" x="2" y="2" width="28" height="28" fill="currentColor" opacity="0.165" rx="4"/>
      <g class="mascot-body"><rect x="6" y="27" width="22" height="1" fill="#000" class="r-cast" opacity="0.35"/><rect x="4" y="12" width="24" height="1" fill="#3d2818" class="r-body-outline"/><rect x="3" y="13" width="1" height="13" fill="#3d2818" class="r-body-outline"/><rect x="28" y="13" width="1" height="13" fill="#3d2818" class="r-body-outline"/><rect x="4" y="26" width="24" height="1" fill="#3d2818" class="r-body-outline"/><rect x="4" y="13" width="24" height="13" fill="#6b4a32" class="r-body"/><rect x="5" y="13" width="5" height="1" fill="#8a6448" class="r-body-hi"/><rect x="4" y="14" width="1" height="4" fill="#8a6448" class="r-body-hi"/><rect x="22" y="22" width="6" height="4" fill="#3d2818" class="r-body-sh"/><rect x="7" y="18" width="18" height="6" fill="#8a6448" class="r-belly"/><rect x="0" y="14" width="1" height="4" fill="#3d2818" class="r-snout-outline"/><rect x="1" y="18" width="5" height="1" fill="#3d2818" class="r-snout-outline"/><rect x="1" y="15" width="5" height="3" fill="#fb7185" class="r-snout"/><rect x="1" y="15" width="3" height="1" fill="#fda4af" class="r-snout-hi"/><rect x="2" y="16" width="1" height="1" fill="#7f1d1d" class="r-nostril"/><rect x="4" y="16" width="1" height="1" fill="#7f1d1d" class="r-nostril"/><rect x="7" y="14" width="3" height="1" fill="#3d2818" class="r-eye"/><rect x="0" y="19" width="1" height="1" fill="#a78bfa" class="r-whisker" opacity="0.8"/><rect x="23" y="18" width="8" height="1" fill="#475569" class="r-claw-sh"/><rect x="23" y="19" width="8" height="3" fill="#cbd5e1" class="r-claw"/><rect x="23" y="19" width="8" height="1" fill="#f1f5f9" class="r-claw-hi"/><rect x="23" y="22" width="8" height="1" fill="#64748b" class="r-claw-sh"/><rect x="23" y="22" width="1" height="2" fill="#cbd5e1" class="r-finger-1"/><rect x="26" y="22" width="1" height="2" fill="#cbd5e1" class="r-finger-2"/><rect x="29" y="22" width="1" height="2" fill="#cbd5e1" class="r-finger-3"/><rect x="30" y="19" width="1" height="3" fill="#f1f5f9" class="r-claw-tip"/><rect x="6" y="13" width="4" height="1" fill="#3d2818" class="r-brow" opacity="0"/><rect x="6" y="26" width="3" height="1" fill="#3d2818" class="r-foot"/><rect x="22" y="26" width="3" height="1" fill="#3d2818" class="r-foot"/><rect x="18" y="25" width="6" height="1" fill="#475569" class="r-anvil-base" opacity="0"/><rect x="19" y="23" width="4" height="2" fill="#64748b" class="r-anvil-top" opacity="0"/><rect x="19" y="23" width="4" height="1" fill="#94a3b8" class="r-anvil-hi" opacity="0"/></g>
      <g class="mascot-evo"><rect x="28" y="16" width="1" height="1" fill="currentColor" class="r-spark"/><rect x="25" y="14" width="1" height="1" fill="currentColor" class="r-spark"/><rect x="30" y="17" width="1" height="1" fill="currentColor" class="r-spark"/><rect x="10" y="11" width="1" height="1" fill="#3d2818" class="r-fur"/><rect x="14" y="11" width="1" height="1" fill="#3d2818" class="r-fur"/><rect x="12" y="26" width="8" height="1" fill="#475569" class="r-anvil"/><rect x="14" y="24" width="4" height="2" fill="#64748b" class="r-anvil-top"/><rect x="14" y="24" width="4" height="1" fill="#94a3b8" class="r-anvil-hi"/><rect x="22" y="5" width="4" height="3" fill="#94a3b8" class="r-hammer-head"/><rect x="22" y="5" width="4" height="1" fill="#cbd5e1" class="r-hammer-hi"/><rect x="23" y="8" width="1" height="4" fill="#6b4a32" class="r-hammer-shaft"/></g>
    
  </g>
  <text x="100" y="186" text-anchor="middle"
        font-family="JetBrains Mono, ui-monospace, monospace"
        font-weight="700" font-size="9" fill="#ff9a55"
        opacity=".75" letter-spacing="1.2">
    FORGE · FORGE MOLE
  </text>
</svg>
