<?xml version="1.0" encoding="UTF-8"?>
<svg xmlns="http://www.w3.org/2000/svg" viewBox="0 0 200 200" width="200" height="200"
     role="img" aria-label="FORGE · Forge Mole mascot">
  <defs>
    <linearGradient id="bg" x1="0" y1="0" x2="0" y2="1">
      <stop offset="0%" stop-color="#0c1224"/>
      <stop offset="100%" stop-color="#06090f"/>
    </linearGradient>
    <radialGradient id="halo" cx="50%" cy="50%" r="50%">
      <stop offset="0%" stop-color="#ff9a55" stop-opacity=".25"/>
      <stop offset="70%" stop-color="#ff9a55" stop-opacity=".03"/>
      <stop offset="100%" stop-color="#ff9a55" stop-opacity="0"/>
    </radialGradient>
  </defs>
  <rect width="200" height="200" rx="22" fill="url(#bg)"/>
  <rect x="6" y="6" width="188" height="188" rx="18" fill="none" stroke="#ff9a55" stroke-opacity=".35"/>
  <circle cx="100" cy="100" r="86" fill="url(#halo)"/>
  <g transform="translate(50,50) scale(1.0)" style="color:#ff9a55">
    
      <defs>
        <radialGradient id="halo-mole-5" cx="50%" cy="50%" r="50%">
          <stop offset="0%"  stop-color="currentColor" stop-opacity="0.27499999999999997"/>
          <stop offset="60%" stop-color="currentColor" stop-opacity="0.02"/>
          <stop offset="100%" stop-color="currentColor" stop-opacity="0"/>
        </radialGradient>
        <filter id="glow-mole-5" x="-40%" y="-40%" width="180%" height="180%">
          <feGaussianBlur stdDeviation="2.5" result="b"/>
          <feMerge><feMergeNode in="b"/><feMergeNode in="SourceGraphic"/></feMerge>
        </filter>
      </defs>
      <circle class="mascot-halo" cx="50" cy="52" r="46" fill="url(#halo-mole-5)"/>
      <g class="mascot-body" filter="url(#glow-mole-5)">
    <g class="m-mole">
      <ellipse class="m-mole-shadow" cx="50" cy="80" rx="22" ry="3" fill="currentColor" opacity=".1"/>
      <ellipse class="m-mole-body" cx="50" cy="60" rx="24" ry="16" fill="none" stroke="currentColor" stroke-width="2.2"/>
      <path    class="m-mole-fur" d="M30 50q20 -8 40 0" stroke="currentColor" stroke-width=".7" fill="none" opacity=".4"/>
      <circle  class="m-mole-head" cx="34" cy="56" r="11" fill="none" stroke="currentColor" stroke-width="2"/>
      <ellipse class="m-mole-nose" cx="25" cy="56" rx="2.6" ry="2" fill="currentColor"/>
      <path    class="m-mole-whisker" d="M22 56h-6M22 58q-4 1 -7 3" stroke="currentColor" stroke-width=".6" fill="none" opacity=".6"/>
      <line    class="m-mole-eye" x1="32" y1="54" x2="34" y2="54" stroke="currentColor" stroke-width="1.4"/>
      <path    class="m-mole-claw" d="M70 70l6 6M66 74l4 6M72 64l6 4" stroke="currentColor" stroke-width="1.6" fill="none"/>
      <path    class="m-mole-anvil" d="M14 78h12l-2 -4h-8z" stroke="currentColor" stroke-width="1.2" fill="none" opacity=".55"/>
      <circle class="spark s1" cx="78" cy="74" r="1.3" fill="currentColor"/>
      <circle class="spark s2" cx="74" cy="80" r="1.5" fill="currentColor"/>
      <circle class="spark s3" cx="82" cy="64" r="1.1" fill="currentColor"/>
      <path class="m-mole-hammer" d="M20 30l-6 -6l10 -4l4 10z" fill="currentColor" opacity=".6"/><path class="m-mole-haft" d="M22 32l8 8" stroke="currentColor" stroke-width="1.2" opacity=".6"/>
    </g>
  </g>
      <circle class="evo-spark" cx="21" cy="13" r="0.7" style="animation-duration:1.6s;animation-delay:0s"/><circle class="evo-spark" cx="34" cy="16" r="0.95" style="animation-duration:2.0500000000000003s;animation-delay:0.21s"/><circle class="evo-spark" cx="47" cy="19" r="1.2" style="animation-duration:2.5s;animation-delay:0.42s"/><circle class="evo-spark" cx="60" cy="22" r="0.7" style="animation-duration:2.95s;animation-delay:0.63s"/><circle class="evo-spark" cx="73" cy="9" r="0.95" style="animation-duration:1.6s;animation-delay:0.84s"/><circle class="evo-spark" cx="14" cy="12" r="1.2" style="animation-duration:2.0500000000000003s;animation-delay:1.05s"/><circle class="evo-spark" cx="27" cy="15" r="0.7" style="animation-duration:2.5s;animation-delay:1.26s"/><circle class="evo-spark" cx="40" cy="18" r="0.95" style="animation-duration:2.95s;animation-delay:1.47s"/>
    
  </g>
  <text x="100" y="186" text-anchor="middle"
        font-family="JetBrains Mono, ui-monospace, monospace"
        font-weight="700" font-size="9" fill="#ff9a55"
        opacity=".75" letter-spacing="1.2">
    FORGE · FORGE MOLE
  </text>
</svg>
