<?xml version="1.0" encoding="UTF-8"?>
<svg xmlns="http://www.w3.org/2000/svg" viewBox="0 0 200 200" width="200" height="200"
     role="img" aria-label="LEDGER · Accountant Raccoon mascot">
  <defs>
    <linearGradient id="bg" x1="0" y1="0" x2="0" y2="1">
      <stop offset="0%" stop-color="#0c1224"/>
      <stop offset="100%" stop-color="#06090f"/>
    </linearGradient>
    <radialGradient id="halo" cx="50%" cy="50%" r="50%">
      <stop offset="0%" stop-color="#eab308" stop-opacity=".25"/>
      <stop offset="70%" stop-color="#eab308" stop-opacity=".03"/>
      <stop offset="100%" stop-color="#eab308" stop-opacity="0"/>
    </radialGradient>
  </defs>
  <rect width="200" height="200" rx="22" fill="url(#bg)"/>
  <rect x="6" y="6" width="188" height="188" rx="18" fill="none" stroke="#eab308" stroke-opacity=".35"/>
  <circle cx="100" cy="100" r="86" fill="url(#halo)"/>
  <g transform="translate(50,50) scale(1.0)" style="color:#eab308">
    
      <defs>
        <radialGradient id="halo-raccoon-5" cx="50%" cy="50%" r="50%">
          <stop offset="0%"  stop-color="currentColor" stop-opacity="0.27499999999999997"/>
          <stop offset="60%" stop-color="currentColor" stop-opacity="0.02"/>
          <stop offset="100%" stop-color="currentColor" stop-opacity="0"/>
        </radialGradient>
        <filter id="glow-raccoon-5" x="-40%" y="-40%" width="180%" height="180%">
          <feGaussianBlur stdDeviation="2.5" result="b"/>
          <feMerge><feMergeNode in="b"/><feMergeNode in="SourceGraphic"/></feMerge>
        </filter>
      </defs>
      <circle class="mascot-halo" cx="50" cy="52" r="46" fill="url(#halo-raccoon-5)"/>
      <g class="mascot-body" filter="url(#glow-raccoon-5)">
    <g class="m-rc">
      <ellipse class="m-rc-body" cx="50" cy="58" rx="16" ry="12" fill="none" stroke="currentColor" stroke-width="2.2"/>
      <circle  class="m-rc-head" cx="36" cy="44" r="10" fill="none" stroke="currentColor" stroke-width="2"/>
      <path    class="m-rc-mask" d="M26 44q4 -5 20 0" stroke="currentColor" stroke-width="2.2" fill="none"/>
      <path    class="m-rc-mask-fill" d="M26 44q4 -5 20 0v2q-10 4 -20 0z" fill="currentColor" opacity=".55"/>
      <circle  class="m-rc-eye" cx="31" cy="44.5" r="1.4" fill="#fff"/>
      <circle  class="m-rc-eye" cx="41" cy="44.5" r="1.4" fill="#fff"/>
      <circle  class="m-rc-pupil" cx="31" cy="44.5" r=".8" fill="currentColor"/>
      <circle  class="m-rc-pupil" cx="41" cy="44.5" r=".8" fill="currentColor"/>
      <path    class="m-rc-ear l" d="M30 34l-2 -6l5 4z" fill="currentColor"/>
      <path    class="m-rc-ear r" d="M42 34l2 -6l-5 4z" fill="currentColor"/>
      <path    class="m-rc-tail" d="M64 64q14 -2 16 14" stroke="currentColor" stroke-width="2" fill="none"/>
      <path    class="m-rc-stripe s1" d="M64 64q3 4 6 9" stroke="currentColor" stroke-width="1.2" opacity=".7"/>
      <path    class="m-rc-stripe s2" d="M70 70q3 4 4 9" stroke="currentColor" stroke-width="1.2" opacity=".55"/>
      <circle class="m-coin c1" cx="74" cy="44" r="3" fill="none" stroke="currentColor" stroke-width="1.4"/><text x="74" y="46" text-anchor="middle" font-size="4" fill="currentColor" font-family="monospace">¤</text>
      <circle class="m-coin c2" cx="82" cy="52" r="2.4" fill="none" stroke="currentColor" stroke-width="1.2"/>
      <rect class="m-bar" x="16" y="78" width="28" height="4" rx="1" fill="none" stroke="currentColor" stroke-width="0.8" opacity=".55"/><rect class="m-bar-fill" x="16" y="78" width="12" height="4" rx="1" fill="currentColor" opacity=".75"/>
      <text x="74" y="68" font-size="6" font-family="monospace" fill="currentColor" opacity=".85" class="m-tick">+0.42</text>
    </g>
  </g>
      <circle class="evo-spark" cx="21" cy="13" r="0.7" style="animation-duration:1.6s;animation-delay:0s"/><circle class="evo-spark" cx="34" cy="16" r="0.95" style="animation-duration:2.0500000000000003s;animation-delay:0.21s"/><circle class="evo-spark" cx="47" cy="19" r="1.2" style="animation-duration:2.5s;animation-delay:0.42s"/><circle class="evo-spark" cx="60" cy="22" r="0.7" style="animation-duration:2.95s;animation-delay:0.63s"/><circle class="evo-spark" cx="73" cy="9" r="0.95" style="animation-duration:1.6s;animation-delay:0.84s"/><circle class="evo-spark" cx="14" cy="12" r="1.2" style="animation-duration:2.0500000000000003s;animation-delay:1.05s"/><circle class="evo-spark" cx="27" cy="15" r="0.7" style="animation-duration:2.5s;animation-delay:1.26s"/><circle class="evo-spark" cx="40" cy="18" r="0.95" style="animation-duration:2.95s;animation-delay:1.47s"/>
    
  </g>
  <text x="100" y="186" text-anchor="middle"
        font-family="JetBrains Mono, ui-monospace, monospace"
        font-weight="700" font-size="9" fill="#eab308"
        opacity=".75" letter-spacing="1.2">
    LEDGER · ACCOUNTANT RACCOON
  </text>
</svg>
