<?xml version="1.0" encoding="UTF-8"?>
<svg xmlns="http://www.w3.org/2000/svg" viewBox="0 0 200 200" width="200" height="200"
     role="img" aria-label="LUMA · Firefly mascot">
  <defs>
    <linearGradient id="bg" x1="0" y1="0" x2="0" y2="1">
      <stop offset="0%" stop-color="#0c1224"/>
      <stop offset="100%" stop-color="#06090f"/>
    </linearGradient>
    <radialGradient id="halo" cx="50%" cy="50%" r="50%">
      <stop offset="0%" stop-color="#fde047" stop-opacity=".25"/>
      <stop offset="70%" stop-color="#fde047" stop-opacity=".03"/>
      <stop offset="100%" stop-color="#fde047" stop-opacity="0"/>
    </radialGradient>
  </defs>
  <rect width="200" height="200" rx="22" fill="url(#bg)"/>
  <rect x="6" y="6" width="188" height="188" rx="18" fill="none" stroke="#fde047" stroke-opacity=".35"/>
  <circle cx="100" cy="100" r="86" fill="url(#halo)"/>
  <g transform="translate(50,50) scale(1.0)" style="color:#fde047">
    
      <defs>
        <radialGradient id="halo-firefly-5" cx="50%" cy="50%" r="50%">
          <stop offset="0%"  stop-color="currentColor" stop-opacity="0.27499999999999997"/>
          <stop offset="60%" stop-color="currentColor" stop-opacity="0.02"/>
          <stop offset="100%" stop-color="currentColor" stop-opacity="0"/>
        </radialGradient>
        <filter id="glow-firefly-5" x="-40%" y="-40%" width="180%" height="180%">
          <feGaussianBlur stdDeviation="2.5" result="b"/>
          <feMerge><feMergeNode in="b"/><feMergeNode in="SourceGraphic"/></feMerge>
        </filter>
      </defs>
      <circle class="mascot-halo" cx="50" cy="52" r="46" fill="url(#halo-firefly-5)"/>
      <g class="mascot-body" filter="url(#glow-firefly-5)">
    <g class="m-ff">
      <ellipse class="m-ff-body" cx="50" cy="52" rx="9" ry="6" fill="none" stroke="currentColor" stroke-width="1.8"/>
      <circle  class="m-ff-head" cx="42" cy="50" r="4" fill="none" stroke="currentColor" stroke-width="1.8"/>
      <circle  class="m-ff-eye" cx="41" cy="50" r="0.9" fill="currentColor"/>
      <path    class="m-ff-antenna" d="M42 47l-3 -6M44 46l-1 -5" stroke="currentColor" stroke-width=".7" fill="none"/>
      <path    class="m-ff-wing l" d="M50 46q-5 -14 -2 0z" fill="currentColor" opacity=".5"/>
      <path    class="m-ff-wing r" d="M50 46q5 -14 2 0z" fill="currentColor" opacity=".5"/>
      <circle  class="m-ff-glow" cx="58" cy="54" r="6" fill="currentColor" opacity=".55"/>
      <circle  class="m-ff-glow-core" cx="58" cy="54" r="2.5" fill="currentColor" opacity="1"/>
      <circle class="m-spark sp1" cx="32" cy="34" r="1.4" fill="currentColor"/>
      <circle class="m-spark sp2" cx="72" cy="38" r="1.2" fill="currentColor"/>
      <circle class="m-spark sp3" cx="78" cy="68" r="1.3" fill="currentColor"/>
      <circle class="m-spark sp4" cx="22" cy="72" r="1.4" fill="currentColor"/>
    </g>
  </g>
      <circle class="evo-spark" cx="21" cy="13" r="0.7" style="animation-duration:1.6s;animation-delay:0s"/><circle class="evo-spark" cx="34" cy="16" r="0.95" style="animation-duration:2.0500000000000003s;animation-delay:0.21s"/><circle class="evo-spark" cx="47" cy="19" r="1.2" style="animation-duration:2.5s;animation-delay:0.42s"/><circle class="evo-spark" cx="60" cy="22" r="0.7" style="animation-duration:2.95s;animation-delay:0.63s"/><circle class="evo-spark" cx="73" cy="9" r="0.95" style="animation-duration:1.6s;animation-delay:0.84s"/><circle class="evo-spark" cx="14" cy="12" r="1.2" style="animation-duration:2.0500000000000003s;animation-delay:1.05s"/><circle class="evo-spark" cx="27" cy="15" r="0.7" style="animation-duration:2.5s;animation-delay:1.26s"/><circle class="evo-spark" cx="40" cy="18" r="0.95" style="animation-duration:2.95s;animation-delay:1.47s"/>
    
  </g>
  <text x="100" y="186" text-anchor="middle"
        font-family="JetBrains Mono, ui-monospace, monospace"
        font-weight="700" font-size="9" fill="#fde047"
        opacity=".75" letter-spacing="1.2">
    LUMA · FIREFLY
  </text>
</svg>
