<?xml version="1.0" encoding="UTF-8"?>
<svg xmlns="http://www.w3.org/2000/svg" viewBox="0 0 200 200" width="200" height="200"
     shape-rendering="crispEdges"
     role="img" aria-label="PRISM · Prism Chameleon mascot">
  <defs>
    <linearGradient id="bg" x1="0" y1="0" x2="0" y2="1">
      <stop offset="0%" stop-color="#0c1224"/>
      <stop offset="100%" stop-color="#06090f"/>
    </linearGradient>
    <radialGradient id="halo" cx="50%" cy="50%" r="50%">
      <stop offset="0%" stop-color="#a78bfa" stop-opacity=".25"/>
      <stop offset="70%" stop-color="#a78bfa" stop-opacity=".03"/>
      <stop offset="100%" stop-color="#a78bfa" stop-opacity="0"/>
    </radialGradient>
  </defs>
  <rect width="200" height="200" rx="22" fill="url(#bg)"/>
  <rect x="6" y="6" width="188" height="188" rx="18" fill="none" stroke="#a78bfa" stroke-opacity=".35"/>
  <circle cx="100" cy="100" r="86" fill="url(#halo)"/>
  <!-- centred 32-unit canvas, scaled up ×5 to fill the 200-unit frame -->
  <g transform="translate(20,20) scale(5)" style="color:#a78bfa">
    
      <rect class="halo" x="2" y="2" width="28" height="28" fill="currentColor" opacity="0.165" rx="4"/>
      <g class="mascot-body"><rect x="24" y="16" width="5" height="2" fill="#0ea5e9" class="r-tail"/><rect x="27" y="18" width="2" height="5" fill="#0ea5e9" class="r-tail"/><rect x="25" y="22" width="3" height="2" fill="#0ea5e9" class="r-tail"/><rect x="6" y="14" width="20" height="9" fill="#0ea5e9" class="r-body"/><rect x="7" y="13" width="18" height="1" fill="#0ea5e9" class="r-body"/><rect x="8" y="18" width="16" height="4" fill="#38bdf8" class="r-belly"/><rect x="8" y="23" width="2" height="3" fill="#0369a1" class="r-foot"/><rect x="14" y="23" width="2" height="3" fill="#0369a1" class="r-foot"/><rect x="20" y="23" width="2" height="3" fill="#0369a1" class="r-foot"/><rect x="8" y="26" width="1" height="1" fill="#0369a1" class="r-toe"/><rect x="10" y="26" width="1" height="1" fill="#0369a1" class="r-toe"/><rect x="14" y="26" width="1" height="1" fill="#0369a1" class="r-toe"/><rect x="16" y="26" width="1" height="1" fill="#0369a1" class="r-toe"/><rect x="20" y="26" width="1" height="1" fill="#0369a1" class="r-toe"/><rect x="22" y="26" width="1" height="1" fill="#0369a1" class="r-toe"/><rect x="3" y="12" width="6" height="7" fill="#0ea5e9" class="r-head"/><rect x="2" y="9" width="4" height="4" fill="#0ea5e9" class="r-eye-cone"/><rect x="2" y="9" width="4" height="4" fill="#fef3c7" class="r-eye-ball"/><rect x="3" y="10" width="2" height="2" fill="#111" class="r-eye-iris"/><rect x="3" y="10" width="1" height="1" fill="#fff" class="r-eye-glint"/><rect x="2" y="16" width="4" height="1" fill="#0369a1" class="r-mouth"/><rect x="1" y="16" width="1" height="1" fill="#f472b6" class="r-tongue"/></g>
      <g class="mascot-evo"><rect x="12" y="16" width="2" height="2" fill="#f472b6" class="r-spot"/><rect x="17" y="15" width="2" height="2" fill="#fcd34d" class="r-spot"/><rect x="21" y="17" width="2" height="2" fill="#a78bfa" class="r-spot"/><rect x="14" y="13" width="1" height="3" fill="#0369a1" class="r-stripe"/><rect x="19" y="13" width="1" height="3" fill="#0369a1" class="r-stripe"/><rect x="12" y="11" width="1" height="2" fill="currentColor" class="r-crest"/><rect x="15" y="10" width="1" height="3" fill="currentColor" class="r-crest"/><rect x="18" y="11" width="1" height="2" fill="currentColor" class="r-crest"/><rect x="21" y="12" width="1" height="1" fill="currentColor" class="r-crest"/></g>
    
  </g>
  <text x="100" y="186" text-anchor="middle"
        font-family="JetBrains Mono, ui-monospace, monospace"
        font-weight="700" font-size="9" fill="#a78bfa"
        opacity=".75" letter-spacing="1.2">
    PRISM · PRISM CHAMELEON
  </text>
</svg>
