<?xml version="1.0" encoding="UTF-8"?>
<svg xmlns="http://www.w3.org/2000/svg" viewBox="0 0 200 200" width="200" height="200"
     shape-rendering="crispEdges"
     role="img" aria-label="SCRIBE · Scribe Raven mascot">
  <defs>
    <linearGradient id="bg" x1="0" y1="0" x2="0" y2="1">
      <stop offset="0%" stop-color="#0c1224"/>
      <stop offset="100%" stop-color="#06090f"/>
    </linearGradient>
    <radialGradient id="halo" cx="50%" cy="50%" r="50%">
      <stop offset="0%" stop-color="#9aa5c4" stop-opacity=".25"/>
      <stop offset="70%" stop-color="#9aa5c4" stop-opacity=".03"/>
      <stop offset="100%" stop-color="#9aa5c4" stop-opacity="0"/>
    </radialGradient>
  </defs>
  <rect width="200" height="200" rx="22" fill="url(#bg)"/>
  <rect x="6" y="6" width="188" height="188" rx="18" fill="none" stroke="#9aa5c4" stroke-opacity=".35"/>
  <circle cx="100" cy="100" r="86" fill="url(#halo)"/>
  <!-- centred 32-unit canvas, scaled up ×5 to fill the 200-unit frame -->
  <g transform="translate(20,20) scale(5)" style="color:#9aa5c4">
    
      <rect class="halo" x="2" y="2" width="28" height="28" fill="currentColor" opacity="0.165" rx="4"/>
      <g class="mascot-body"><rect x="3" y="25" width="26" height="1" fill="#92400e" class="r-scroll-outline"/><rect x="3" y="26" width="26" height="2" fill="#fef3c7" class="r-scroll"/><rect x="3" y="28" width="26" height="1" fill="#d4a574" class="r-scroll-edge"/><rect x="2" y="26" width="1" height="2" fill="#d4a574" class="r-scroll-curl"/><rect x="29" y="26" width="1" height="2" fill="#d4a574" class="r-scroll-curl"/><rect x="8" y="11" width="14" height="1" fill="#020617" class="r-body-outline"/><rect x="8" y="25" width="14" height="1" fill="#020617" class="r-body-outline"/><rect x="7" y="12" width="1" height="13" fill="#020617" class="r-body-outline"/><rect x="22" y="12" width="1" height="13" fill="#020617" class="r-body-outline"/><rect x="8" y="12" width="14" height="13" fill="#0f172a" class="r-body"/><rect x="8" y="12" width="4" height="1" fill="#334155" class="r-body-hi"/><rect x="8" y="13" width="1" height="4" fill="#334155" class="r-body-hi"/><rect x="9" y="13" width="6" height="10" fill="#020617" class="r-wing"/><rect x="9" y="13" width="4" height="1" fill="#334155" class="r-wing-hi"/><rect x="9" y="22" width="4" height="1" fill="#334155" class="r-wing-tip"/><rect x="17" y="6" width="8" height="1" fill="#020617" class="r-head-outline"/><rect x="17" y="14" width="8" height="1" fill="#020617" class="r-head-outline"/><rect x="16" y="7" width="1" height="7" fill="#020617" class="r-head-outline"/><rect x="25" y="7" width="1" height="7" fill="#020617" class="r-head-outline"/><rect x="17" y="7" width="8" height="7" fill="#0f172a" class="r-head"/><rect x="17" y="7" width="5" height="1" fill="#334155" class="r-head-hi"/><rect x="19" y="5" width="2" height="1" fill="#0f172a" class="r-tuft"/><rect x="20" y="4" width="1" height="1" fill="#0f172a" class="r-tuft"/><rect x="25" y="9" width="6" height="1" fill="#92400e" class="r-beak-outline"/><rect x="25" y="13" width="6" height="1" fill="#92400e" class="r-beak-outline"/><rect x="25" y="10" width="6" height="1" fill="#fcd34d" class="r-beak"/><rect x="25" y="11" width="5" height="1" fill="#fcd34d" class="r-beak"/><rect x="25" y="12" width="4" height="1" fill="#fcd34d" class="r-beak"/><rect x="25" y="10" width="4" height="1" fill="#fde68a" class="r-beak-hi"/><rect x="21" y="9" width="3" height="3" fill="#fcd34d" class="r-eye-w"/><rect x="22" y="10" width="1" height="1" fill="#0f172a" class="r-eye"/><rect x="23" y="9" width="1" height="1" fill="#fff" class="r-eye-glint"/><rect x="12" y="25" width="2" height="2" fill="#fcd34d" class="r-leg"/><rect x="18" y="25" width="2" height="2" fill="#fcd34d" class="r-leg"/><rect x="16" y="18" width="1" height="6" fill="#fcd34d" class="r-quill-shaft"/><rect x="17" y="17" width="1" height="1" fill="#fcd34d" class="r-quill-shaft"/><rect x="17" y="18" width="1" height="6" fill="#92400e" class="r-quill-shaft-sh"/><rect x="15" y="14" width="3" height="4" fill="#fde68a" class="r-quill-feather"/><rect x="14" y="15" width="1" height="2" fill="#fde68a" class="r-quill-feather"/><rect x="15" y="14" width="2" height="1" fill="#fff" class="r-quill-feather-hi"/><rect x="16" y="17" width="2" height="1" fill="#fcd34d" class="r-quill-feather-sh"/><rect x="23" y="24" width="3" height="2" fill="#1e293b" class="r-ink-pot" opacity="0"/><rect x="23" y="24" width="3" height="1" fill="#475569" class="r-ink-pot-hi" opacity="0"/><rect x="17" y="24" width="1" height="1" fill="#1e293b" class="r-ink-drop" opacity="0"/><rect x="15" y="23" width="1" height="1" fill="#1e293b" class="r-ink-drop" opacity="0"/><rect x="13" y="22" width="1" height="1" fill="#1e293b" class="r-ink-drop" opacity="0"/></g>
      <g class="mascot-evo"><rect x="16" y="27" width="2" height="1" fill="#1e293b" class="r-ink"/><rect x="6" y="27" width="6" height="1" fill="#1e293b" class="r-line" opacity="0.6"/><rect x="19" y="27" width="6" height="1" fill="#1e293b" class="r-line" opacity="0.6"/><rect x="10" y="24" width="1" height="2" fill="#020617" class="r-tail-feather"/><rect x="12" y="24" width="1" height="2" fill="#020617" class="r-tail-feather"/><rect x="14" y="24" width="1" height="2" fill="#020617" class="r-tail-feather"/><rect x="22" y="5" width="1" height="2" fill="#fcd34d" class="r-feather-tuft"/><rect x="4" y="4" width="24" height="22" fill="currentColor" class="r-aura" opacity="0.1"/></g>
    
  </g>
  <text x="100" y="186" text-anchor="middle"
        font-family="JetBrains Mono, ui-monospace, monospace"
        font-weight="700" font-size="9" fill="#9aa5c4"
        opacity=".75" letter-spacing="1.2">
    SCRIBE · SCRIBE RAVEN
  </text>
</svg>
