<?xml version="1.0" encoding="UTF-8"?>
<svg xmlns="http://www.w3.org/2000/svg" viewBox="0 0 200 200" width="200" height="200"
     shape-rendering="crispEdges"
     role="img" aria-label="SENTINEL · Guardian Owl mascot">
  <defs>
    <linearGradient id="bg" x1="0" y1="0" x2="0" y2="1">
      <stop offset="0%" stop-color="#0c1224"/>
      <stop offset="100%" stop-color="#06090f"/>
    </linearGradient>
    <radialGradient id="halo" cx="50%" cy="50%" r="50%">
      <stop offset="0%" stop-color="#7ee787" stop-opacity=".25"/>
      <stop offset="70%" stop-color="#7ee787" stop-opacity=".03"/>
      <stop offset="100%" stop-color="#7ee787" stop-opacity="0"/>
    </radialGradient>
  </defs>
  <rect width="200" height="200" rx="22" fill="url(#bg)"/>
  <rect x="6" y="6" width="188" height="188" rx="18" fill="none" stroke="#7ee787" stroke-opacity=".35"/>
  <circle cx="100" cy="100" r="86" fill="url(#halo)"/>
  <!-- centred 32-unit canvas, scaled up ×5 to fill the 200-unit frame -->
  <g transform="translate(20,20) scale(5)" style="color:#7ee787">
    
      <rect class="halo" x="2" y="2" width="28" height="28" fill="currentColor" opacity="0.165" rx="4"/>
      <g class="mascot-body"><rect x="8" y="6" width="16" height="1" fill="#3b2418" class="r-body-outline"/><rect x="7" y="7" width="1" height="1" fill="#3b2418" class="r-body-outline"/><rect x="24" y="7" width="1" height="1" fill="#3b2418" class="r-body-outline"/><rect x="6" y="8" width="1" height="16" fill="#3b2418" class="r-body-outline"/><rect x="25" y="8" width="1" height="16" fill="#3b2418" class="r-body-outline"/><rect x="7" y="24" width="1" height="1" fill="#3b2418" class="r-body-outline"/><rect x="24" y="24" width="1" height="1" fill="#3b2418" class="r-body-outline"/><rect x="8" y="25" width="16" height="1" fill="#3b2418" class="r-body-outline"/><rect x="7" y="7" width="18" height="1" fill="#6b4630" class="r-body"/><rect x="7" y="24" width="18" height="1" fill="#6b4630" class="r-body"/><rect x="7" y="8" width="18" height="16" fill="#6b4630" class="r-body"/><rect x="8" y="7" width="5" height="1" fill="#a07655" class="r-body-hi"/><rect x="7" y="8" width="1" height="5" fill="#a07655" class="r-body-hi"/><rect x="22" y="19" width="3" height="6" fill="#3b2418" class="r-body-sh"/><rect x="19" y="24" width="5" height="1" fill="#3b2418" class="r-body-sh"/><rect x="9" y="14" width="14" height="10" fill="#a07655" class="r-chest"/><rect x="11" y="24" width="10" height="1" fill="#a07655" class="r-chest"/><rect x="9" y="14" width="4" height="1" fill="#d9b58f" class="r-chest-hi"/><rect x="11" y="17" width="2" height="1" fill="#6b4630" class="r-feather"/><rect x="15" y="17" width="2" height="1" fill="#6b4630" class="r-feather"/><rect x="19" y="17" width="2" height="1" fill="#6b4630" class="r-feather"/><rect x="13" y="20" width="2" height="1" fill="#6b4630" class="r-feather"/><rect x="17" y="20" width="2" height="1" fill="#6b4630" class="r-feather"/><rect x="8" y="7" width="5" height="1" fill="#a07655" class="r-head-hi"/><rect x="7" y="8" width="1" height="3" fill="#a07655" class="r-head-hi"/><rect x="6" y="4" width="2" height="3" fill="#3b2418" class="r-tuft"/><rect x="7" y="2" width="1" height="2" fill="#3b2418" class="r-tuft"/><rect x="24" y="4" width="2" height="3" fill="#3b2418" class="r-tuft"/><rect x="24" y="2" width="1" height="2" fill="#3b2418" class="r-tuft"/><rect x="10" y="8" width="12" height="1" fill="#d9b58f" class="r-face"/><rect x="9" y="9" width="14" height="4" fill="#d9b58f" class="r-face"/><rect x="10" y="13" width="12" height="1" fill="#d9b58f" class="r-face"/><rect x="12" y="14" width="8" height="1" fill="#d9b58f" class="r-face"/><rect x="15" y="12" width="2" height="3" fill="#a07655" class="r-face-groove" opacity="0.6"/><rect x="9" y="9" width="5" height="4" fill="#fcd34d" class="r-eye-bg"/><rect x="18" y="9" width="5" height="4" fill="#fcd34d" class="r-eye-bg"/><rect x="9" y="9" width="5" height="1" fill="#b45309" class="r-eye-rim"/><rect x="18" y="9" width="5" height="1" fill="#b45309" class="r-eye-rim"/><rect x="11" y="10" width="2" height="3" fill="#0f172a" class="r-eye-pupil"/><rect x="19" y="10" width="2" height="3" fill="#0f172a" class="r-eye-pupil"/><rect x="11" y="10" width="1" height="1" fill="#fff" class="r-eye-glint"/><rect x="19" y="10" width="1" height="1" fill="#fff" class="r-eye-glint"/><rect x="9" y="8" width="5" height="1" fill="#6b4630" class="r-eye-lid"/><rect x="18" y="8" width="5" height="1" fill="#6b4630" class="r-eye-lid"/><rect x="15" y="13" width="2" height="2" fill="#f59e0b" class="r-beak"/><rect x="15" y="15" width="2" height="1" fill="#f59e0b" class="r-beak"/><rect x="16" y="16" width="1" height="1" fill="#b45309" class="r-beak"/><rect x="8" y="26" width="16" height="1" fill="#f59e0b" class="r-talon"/><rect x="9" y="27" width="3" height="1" fill="#b45309" class="r-talon"/><rect x="14" y="27" width="4" height="1" fill="#b45309" class="r-talon"/><rect x="20" y="27" width="3" height="1" fill="#b45309" class="r-talon"/></g>
      <g class="mascot-evo"><rect x="5" y="13" width="22" height="1" fill="currentColor" class="r-scan-ring" opacity="0.55"/><rect x="10" y="23" width="1" height="1" fill="#3b2418" class="r-tail-feather"/><rect x="14" y="23" width="1" height="1" fill="#3b2418" class="r-tail-feather"/><rect x="18" y="23" width="1" height="1" fill="#3b2418" class="r-tail-feather"/><rect x="22" y="23" width="1" height="1" fill="#3b2418" class="r-tail-feather"/><rect x="5" y="14" width="2" height="8" fill="#3b2418" class="r-wing"/><rect x="25" y="14" width="2" height="8" fill="#3b2418" class="r-wing"/><rect x="5" y="14" width="1" height="4" fill="#6b4630" class="r-wing-hi"/><rect x="3" y="3" width="26" height="26" fill="currentColor" class="r-aura" opacity="0.12"/></g>
    
  </g>
  <text x="100" y="186" text-anchor="middle"
        font-family="JetBrains Mono, ui-monospace, monospace"
        font-weight="700" font-size="9" fill="#7ee787"
        opacity=".75" letter-spacing="1.2">
    SENTINEL · GUARDIAN OWL
  </text>
</svg>
