<?xml version="1.0" encoding="UTF-8"?>
<svg xmlns="http://www.w3.org/2000/svg" viewBox="0 0 200 200" width="200" height="200"
     role="img" aria-label="VEGA · Neon Hummingbird mascot">
  <defs>
    <linearGradient id="bg" x1="0" y1="0" x2="0" y2="1">
      <stop offset="0%" stop-color="#0c1224"/>
      <stop offset="100%" stop-color="#06090f"/>
    </linearGradient>
    <radialGradient id="halo" cx="50%" cy="50%" r="50%">
      <stop offset="0%" stop-color="#34d399" stop-opacity=".25"/>
      <stop offset="70%" stop-color="#34d399" stop-opacity=".03"/>
      <stop offset="100%" stop-color="#34d399" stop-opacity="0"/>
    </radialGradient>
  </defs>
  <rect width="200" height="200" rx="22" fill="url(#bg)"/>
  <rect x="6" y="6" width="188" height="188" rx="18" fill="none" stroke="#34d399" stroke-opacity=".35"/>
  <circle cx="100" cy="100" r="86" fill="url(#halo)"/>
  <g transform="translate(50,50) scale(1.0)" style="color:#34d399">
    
      <defs>
        <radialGradient id="halo-hummingbird-5" cx="50%" cy="50%" r="50%">
          <stop offset="0%"  stop-color="currentColor" stop-opacity="0.27499999999999997"/>
          <stop offset="60%" stop-color="currentColor" stop-opacity="0.02"/>
          <stop offset="100%" stop-color="currentColor" stop-opacity="0"/>
        </radialGradient>
        <filter id="glow-hummingbird-5" x="-40%" y="-40%" width="180%" height="180%">
          <feGaussianBlur stdDeviation="2.5" result="b"/>
          <feMerge><feMergeNode in="b"/><feMergeNode in="SourceGraphic"/></feMerge>
        </filter>
      </defs>
      <circle class="mascot-halo" cx="50" cy="52" r="46" fill="url(#halo-hummingbird-5)"/>
      <g class="mascot-body" filter="url(#glow-hummingbird-5)">
    <g class="m-hb">
      <ellipse class="m-hb-body" cx="50" cy="56" rx="13" ry="7" fill="none" stroke="currentColor" stroke-width="2"/>
      <circle  class="m-hb-head" cx="64" cy="50" r="6" fill="none" stroke="currentColor" stroke-width="2"/>
      <path    class="m-hb-beak" d="M70 50l14 -1l-14 3z" fill="currentColor"/>
      <path    class="m-hb-tongue" d="M82 49h4" stroke="currentColor" stroke-width=".8"/>
      <path    class="m-hb-wing top" d="M36 50q-4 -16 10 -8q4 4 -2 14" fill="none" stroke="currentColor" stroke-width="2"/>
      <path    class="m-hb-wing bot" d="M36 60q-4 16 10 8q4 -4 -2 -14" fill="none" stroke="currentColor" stroke-width="2"/>
      <circle  class="m-hb-eye" cx="65" cy="49" r="1.1" fill="currentColor"/>
      <circle  class="m-hb-glint" cx="64.4" cy="48.5" r=".5" fill="#fff" opacity=".8"/>
      <circle class="m-trail t1" cx="42" cy="54" r="1.2" fill="currentColor" opacity=".7"/>
      <circle class="m-trail t2" cx="32" cy="56" r="1" fill="currentColor" opacity=".55"/>
      <circle class="m-trail t3" cx="22" cy="58" r="0.8" fill="currentColor" opacity=".35"/>
      <path class="m-hb-tail" d="M36 56l-12 -2l4 4l-4 4l12 -2" stroke="currentColor" stroke-width="0.8" fill="none" opacity=".7"/>
    </g>
  </g>
      <circle class="evo-spark" cx="21" cy="13" r="0.7" style="animation-duration:1.6s;animation-delay:0s"/><circle class="evo-spark" cx="34" cy="16" r="0.95" style="animation-duration:2.0500000000000003s;animation-delay:0.21s"/><circle class="evo-spark" cx="47" cy="19" r="1.2" style="animation-duration:2.5s;animation-delay:0.42s"/><circle class="evo-spark" cx="60" cy="22" r="0.7" style="animation-duration:2.95s;animation-delay:0.63s"/><circle class="evo-spark" cx="73" cy="9" r="0.95" style="animation-duration:1.6s;animation-delay:0.84s"/><circle class="evo-spark" cx="14" cy="12" r="1.2" style="animation-duration:2.0500000000000003s;animation-delay:1.05s"/><circle class="evo-spark" cx="27" cy="15" r="0.7" style="animation-duration:2.5s;animation-delay:1.26s"/><circle class="evo-spark" cx="40" cy="18" r="0.95" style="animation-duration:2.95s;animation-delay:1.47s"/>
    
  </g>
  <text x="100" y="186" text-anchor="middle"
        font-family="JetBrains Mono, ui-monospace, monospace"
        font-weight="700" font-size="9" fill="#34d399"
        opacity=".75" letter-spacing="1.2">
    VEGA · NEON HUMMINGBIRD
  </text>
</svg>
